<svg width="50" height="40" viewBox="0 0 50 40" fill="none" xmlns="http://www.w3.org/2000/svg">
<path d="M49.8775 5.29033C49.6697 4.24014 49.2012 3.24756 48.5176 2.41309C48.3787 2.23789 48.2335 2.08203 48.0747 1.92393C46.8585 0.70127 45.1667 0 43.433 0H6.5668C4.81377 0 3.16504 0.683594 1.92432 1.92461C1.76729 2.08125 1.62168 2.23867 1.47754 2.41943C0.796875 3.25039 0.330371 4.2416 0.127539 5.29326C0.0427734 5.70625 0 6.13418 0 6.56709V32.4594C0 33.3602 0.183008 34.2373 0.545801 35.0712C0.859766 35.8117 1.33613 36.5138 1.92393 37.1013C2.07197 37.2486 2.21904 37.3846 2.37607 37.5171C3.55127 38.4903 5.03936 39.0259 6.5668 39.0259H43.433C44.9703 39.0259 46.4569 38.4883 47.629 37.5063C47.7856 37.3796 47.9309 37.2465 48.0761 37.1013C48.6442 36.5337 49.0958 35.8815 49.4204 35.1624L49.4632 35.0599C49.8192 34.2418 50 33.3675 50 32.4595V6.56709C50 6.13984 49.9588 5.70908 49.8775 5.29033ZM3.40068 4.19102C3.49355 4.05508 3.61211 3.91553 3.76338 3.76309C4.51426 3.0126 5.51006 2.59961 6.5667 2.59961H43.4329C44.4988 2.59961 45.4949 3.01328 46.2375 3.76455C46.3657 3.89414 46.4882 4.03799 46.595 4.18174L46.877 4.56064L27.1992 21.7106C26.5926 22.2425 25.8115 22.5352 24.9997 22.5352C24.1959 22.5352 23.4155 22.2432 22.8017 21.7113L3.14355 4.56553L3.40068 4.19102ZM2.61279 32.688C2.60215 32.6175 2.59971 32.5392 2.59971 32.4594V7.10322L17.8702 20.4246L2.75381 33.6044L2.61279 32.688ZM45.4003 35.9035C44.8093 36.2445 44.1286 36.4254 43.433 36.4254H6.5668C5.8708 36.4254 5.19043 36.2445 4.5998 35.9035L3.98184 35.5453L19.6006 21.9341L21.3123 23.4229C22.3391 24.3144 23.6484 24.8058 24.9999 24.8058C26.3563 24.8058 27.6679 24.3144 28.6939 23.4229L30.405 21.9334L46.0184 35.5461L45.4003 35.9035ZM47.3996 32.4594C47.3996 32.5378 47.3981 32.6153 47.3883 32.6844L47.2529 33.6094L32.1301 20.4317L47.3996 7.10967V32.4594Z" fill="#CBCBCB"/>
</svg>
