<svg width="54" height="53" viewBox="0 0 54 53" fill="none" xmlns="http://www.w3.org/2000/svg">
<path d="M46.4444 19.4821V37.3208C46.4444 41.9878 46.4444 44.3214 45.5361 46.1039C44.7372 47.672 43.4625 48.947 41.8944 49.7458C41.4753 49.9595 41.0256 50.1228 40.5222 50.2478M40.5222 50.2478C39.0828 44.1117 33.575 39.5431 27 39.5431C20.425 39.5431 14.9171 44.1117 13.4778 50.2478M40.5222 50.2478C38.8853 50.6542 36.6806 50.6542 33.1111 50.6542H20.8889C17.3193 50.6542 15.1148 50.6542 13.4778 50.2478M7.55556 19.4803V37.3208C7.55556 41.9878 7.55556 44.3214 8.46383 46.1039C9.26278 47.672 10.5376 48.947 12.1056 49.7458C12.5248 49.9595 12.9745 50.1228 13.4778 50.2478M52 25.6542L36.9078 8.88731C33.4753 5.07406 31.7592 3.16745 29.7378 2.46356C27.9628 1.84534 26.0306 1.84548 24.2553 2.46398C22.2342 3.16815 20.5184 5.07503 17.0865 8.88878L2 25.6542M32.5556 25.6542C32.5556 28.7222 30.0683 31.2097 27 31.2097C23.9317 31.2097 21.4444 28.7222 21.4444 25.6542C21.4444 22.5858 23.9317 20.0985 27 20.0985C30.0683 20.0985 32.5556 22.5858 32.5556 25.6542Z" stroke="#CBCBCB" stroke-width="3" stroke-linecap="round" stroke-linejoin="round"/>
</svg>
